<?xml version="1.0" encoding="UTF-8"?><svg id="a" xmlns="http://www.w3.org/2000/svg" viewBox="0 0 1197.96 773.47"><g id="b"><path d="M1079.34,206.1c-9.95-12.82-8.48-33.09,3.22-44.33,.82-.78,1.91-1.58,2.98-1.21,1.06,.36,1.46,1.74,1.15,2.82-.31,1.08-1.11,1.92-1.85,2.77-7.38,8.49-9.7,21.09-5.81,31.65,1.01,2.75,2.3,6.16,.31,8.31Z"/><path d="M326.67,272.09c-.1,1.81,2.78,1.32,4.55,1.69,3.34,.71,2.96,5.55,4.29,8.7,1.56,3.68,6.4,6.57,5.06,10.33-6.66-.74-12.19-7.13-11.96-13.83,.07-1.94-3-2.55-4.37-1.17-1.37,1.38-1.43,3.54-1.41,5.49-1.72-.58-2.4-2.62-2.68-4.42-.73-4.64-.26-9.69,2.48-13.51s8.12-5.93,12.37-3.94c3.09,1.45,5.02,4.71,5.7,8.05,.68,3.34,.3,6.8-.14,10.18-.13,1-.68,2.32-1.66,2.09-1.04-4.61-1.7-9.3-1.98-14.02-3.58,1-7.04,2.47-10.26,4.34m1.46-3.59c1.02-.53,1.9-1.3,2.56-2.24-2.41-1.3-5.87,.42-6.3,3.12,.36,.65,1.05,1.09,1.79,1.14l1.98-1.97-.02-.05Z"/><path d="M271.82,299.5c-.57-1.34-2.57,.09-2.91,1.5-.34,1.41-1.17,3.39-2.51,2.85-1.07-3.39-3.12-6.47-5.83-8.77-.91-.77,.03-2.2,.97-2.94,7.88-6.19,17.7-9.88,27.71-10.4,.79-.04,1.8,.09,2.01,.85,.07,.24,.03,.5-.01,.75-.8,5.09-1.79,10.58-5.52,14.14-3.13,2.99-7.6,4.03-11.83,4.95-1.24-.37-2.14-1.65-2.07-2.94m6.26-6.32c.68,1.52,2.54,2.4,4.15,1.96,1.6-.44,2.75-2.16,2.55-3.81-2.27-.48-4.75,.16-6.5,1.68l-.2,.17Z"/><path d="M249.64,278.51c2.93-4.22,5.91-8.49,9.84-11.8,3.93-3.31,9-5.59,14.11-5.12,8.77,.82,17.34,3.61,24.91,8.11-1.87,2.08-5.15,2.17-7.83,1.38-2.69-.79-5.15-2.27-7.89-2.86-4.51-.97-9.25,.65-13.07,3.24s-6.89,6.11-10.08,9.45c-1.73,1.82-3.68,3.69-6.16,4.06s-5.42-1.59-5.02-4.06c.14-.89,.67-1.67,1.19-2.41Z"/><path d="M277.88,464.88c-.09-1.81-.06-3.68,.64-5.36,.45-1.07,1.28-2.09,2.42-2.29,.2,5.63-.39,11.28-1.75,16.74-.72-2.98-1.15-6.04-1.3-9.1Z"/><path d="M264.92,332.78c1.17,.68,1,2.57,.01,3.5-.99,.93-2.42,1.16-3.76,1.34-2.97,.41-6.57,.56-8.31-1.88,2.38-2.85,6.58-3.16,10.3-3.25,.6-.01,1.24-.02,1.76,.28Z"/><path d="M226.48,457.26c.63,.47,1.06,1.2,1.18,1.97-.47,.63-1.19,1.06-1.97,1.18-.63-.47-1.06-1.19-1.18-1.97,.47-.63,1.19-1.06,1.97-1.17h0Z"/><path d="M275.22,329.89c-.02,2.02-.83,4.33-2.75,4.97-1.92,.64-4.23-1.99-2.78-3.4,1.7-1.66,.07-4.43-1.36-6.31-1.44-1.88-2.32-5.24-.11-6.09,4.17,1.84,7.04,6.29,7,10.84Z"/><path d="M243.66,330.43c-1.57,3.58,2.17,7.33,5.87,8.6,1.03,.35,2.14,.64,2.92,1.4,.79,.76,1.06,2.18,.25,2.9-5.1-1.46-11.75,2.77-15.32-1.15-2.84-3.12-.43-8.04,2.02-11.48,.62-.87,1.33-1.8,2.37-2.03,1.04-.23,2.32,.79,1.89,1.76Z"/><path d="M287.87,649.42c1.82,.07,3.74,.18,5.27,1.16,1.53,.98,2.46,3.17,1.45,4.69-10.02-4.57-22.82,1.28-32.38-4.19,1.15-2.32,4.31-2.53,6.89-2.43,6.26,.26,12.51,.51,18.77,.77Z"/><path d="M660.62,676.29c5.52,24.29,11.03,48.58,16.55,72.86,.9,3.98,1.81,8.11,.93,12.09-.88,3.98-4.08,7.77-8.16,7.91-41.72,1.43-83.44,2.87-125.16,4.3-3.24,.11-7.86-1.44-6.87-4.53,4.14-12.91-7.39-29.37,1.71-39.42-8.06,.87-16.12,1.74-24.17,2.61-2.71,.29-5.64,.68-7.6,2.58-2.98,2.89-7.64,2.9-11.79,2.72l-112.61-4.86c-14.51-.63-29.2-1.28-43.13-5.39,13.01-6.39,26.01-12.79,39.02-19.18,2.34-1.15,5.66-2.07,7.12,.08-10.96,5.82-21.91,11.64-32.87,17.46,8.14,1.57,16.45,1.94,24.73,2.29,41.95,1.81,83.9,3.63,125.85,5.44,.73-2.04-2.25-3.25-4.42-3.35-44.68-2.08-89.36-4.16-134.04-6.25,1.44-2.72,4.52-4.48,7.6-4.33,49.18,2.45,98.36,4.91,147.54,7.36,3.93,.2,7.98,.37,11.66-1,3.68-1.37,6.93-4.71,6.92-8.64-.03-11.31-.07-22.63-.1-33.94,0-2.57,.08-5.39,1.81-7.29,1.91-2.1,5.1-2.29,7.95-2.32,16.74-.21,33.48-.42,50.23-.63,15.86-.2,31.58-6.04,43.73-16.24-29.88-1.7-59.77-3.4-89.65-5.09-7.48-.43-14.97-.85-22.46-.96-11-.16-22.01,.37-32.95,1.57,2.19-6,10.23-6.77,16.61-6.51,47.34,1.95,94.68,3.91,142.02,5.86,.7,1.86-1.28,3.55-2.99,4.56-8.59,5.06-17.17,10.11-25.76,15.17,8.59-.19,17.18-.38,25.78-.57,1.61-.04,3.34-.03,4.65,.91,1.45,1.05,1.94,2.95,2.34,4.69m14.61,76.47c-42.38,5.11-85.43-.56-127.95,3.22-.96,.09-2.15,.39-2.3,1.33-.62,3.92,2.58,7.62,6.31,8.97s7.84,.93,11.78,.53c30.18-3.07,60.59-3.99,90.9-2.76,4.54,.18,9.22,.39,13.46-1.21,4.25-1.6,7.97-5.55,7.79-10.08m-24.86-69.17c1.04,5.9,2.07,11.81,3.11,17.71l6.21,35.36c.62,3.52,1.27,7.14,3.13,10.2,.73,1.21,2.37,2.39,3.39,1.42-.72-4.33-1.45-8.66-2.19-12.99-3.25-19.22-6.5-38.45-9.75-57.68-1.24-.92-3.15,0-3.78,1.42-.63,1.41-.38,3.04-.11,4.56m-1.14,20.36c-1.62,.6-2.08,3.09-.78,4.23,1.05-.81,1.39-2.42,.75-3.58m-12.67-26.16c-1.4-.71-3.15-.71-4.55,0,1.41,.4,2.9,.51,4.36,.32l.19-.32Z"/><path d="M945.06,202.3c-4.43,.37-8.13,4.71-7.79,9.14,5.45,7.42,7.54,17.22,5.58,26.22,10.97,1.45,22.35,3.04,31.64,9.06,9.28,6.02,15.8,17.85,12.13,28.29-3.96,11.26-17.07,15.94-28.63,18.92-32.76,8.45-66.05,14.89-99.6,19.27,1.15,43.15,2.3,86.31,3.45,129.46,46.36,6.16,93.34,7.59,139.99,4.24-15.89-73.53,36.52-149.22,20.23-222.66-16.25,3.1-34.03-4.98-42.39-19.25-8.36-14.27-6.72-33.73,3.92-46.39,20.4-24.28,26.03-57.27,38.08-86.61,12.05-29.34,36.95-58.77,68.59-56.62-5.24,32.47-10.49,64.93-15.73,97.4,9.39-35.93,30.99-68.56,60.41-91.23,10.56-8.14,23.48-15.31,36.6-12.91,13.12,2.4,23.42,19.04,15.35,29.66-54.83,72.07-78.43,167.09-63.69,256.43,12.5,75.81,18.07,152.75,16.61,229.57-.35,18.49-2.12,39.21-16.11,51.3-8.57,7.42-20.17,10.05-31.26,12.4-193.09,40.78-394.78,67.08-586.68,21.04-5.59,22.04-11.18,44.09-16.77,66.13-1.97,7.76-4.14,15.9-9.73,21.64-7.7,7.92-19.75,9.23-30.76,10.08-22.72,1.76-45.44,3.51-68.17,5.27,5.75-2.98,11.49-5.96,17.24-8.94-60.92,9.65-121.18-32.97-182.07-23.16-51.87,8.36-107.59-19-132.7-65.15-24.87-45.72-49.74-91.44-74.61-137.17,10.83-2.43,20.53-9.53,26.11-19.13,30.34,27.12,76.76,34.64,114.11,18.5,21.69-9.37,40.4-25.93,63.5-30.91,23.09-4.99,53.23,10.16,50.32,33.6,3.51-11.89,7.07-24.15,5.77-36.48-1.3-12.33-8.68-24.87-20.56-28.4-24.15-7.17-37.11-38.99-24.86-60.99,2.5-4.49-1.36-9.76-4.96-13.44-20.07-20.5-40.15-41.01-60.22-61.51,5.87-21.21,11.74-42.42,17.62-63.63,11.79-42.59,51.45-75.97,95.43-80.31,43.97-4.34,89.4,20.64,109.29,60.1,19.89,39.46,12.95,90.83-16.7,123.6,10.93,10.5,27.59,11.31,42.68,12.82,63.29,6.32,123.91,36.44,167.19,83.05,10.78,11.61,20.69,24.35,33.82,33.21,13.13,8.86,30.68,13.25,44.92,6.32-2.09-43.78-4.18-87.56-6.27-131.33-35.4-2-70.6-7.69-104.83-16.95-10.73-2.9-23.49-8.72-23.86-19.84-.33-9.87,9.58-16.66,18.5-20.91,28.72-13.69,60.02-21.97,91.75-24.28-3.45-29.99-2.88-60.44,1.71-90.27-7.46,13.42-21.95,25.6-36.8,21.71-13.64-3.57-20.68-22.1-12.86-33.83,7.82-11.73,27.64-12.35,36.18-1.13-2.21-7-4.43-14-6.64-20.99-2.04,4.72-4.08,9.44-6.12,14.16-9.96-13.29,1.85-32.65,16.37-40.7,14.52-8.05,32.15-10.93,44.25-22.29-1.41,9.44-2.82,18.89-4.23,28.33-1.26,8.44-8.91,19.61-15.33,13.99,4.09,1.52,8.17,3.03,12.26,4.55,8.54-11.09,17.09-22.17,25.63-33.26,14.07-4.25,30.71,5.65,33.68,20.04,1,5.27-5.94,10.03-10.49,7.2,6.08-1.52,12.51,5.19,10.73,11.2,16.75-5.94,32.07,21.66,18.17,32.74-.56-8.84-1.12-17.68-1.68-26.52-5.69,9.57-7.17,21.54-3.98,32.21-10.77,.61-26.22-4.02-23.43-14.44-.75,31.02-.06,62.08,2.05,93.03,8.8-.31,17.59-.63,26.39-.94-5.42-.44-5.41-9.54-.67-12.19,4.74-2.65,10.63-.89,15.75,.92,.46-5.97,2.05-11.84,4.65-17.23,62.53-17.14,129.25-18.79,192.55-4.78M411.34,616.4c13.83-4.55,30.27,.49,39.18,12-10.09-2.81-20.17-5.62-30.26-8.42,9.79,15.2,20.84,29.58,32.99,42.96-8.32-3.2-15.68-8.84-20.94-16.04,3.71,9.33,10.15,17.56,18.31,23.41-7.82-2.02-14.75-7.26-18.82-14.24-3.51-6.02-4.92-13.15-8.83-18.92-3.92-5.77-12.09-9.82-17.85-5.9,3.88,21.15,16.17,40.64,33.58,53.27-22.79-5.07-33.93-30.3-41.65-52.33-25.91,7-53.48,7.76-79.74,2.21-4.51-.96-7.74,4.15-9.5,8.42-5.5,13.34-10.04,31.06,1.1,40.23,6.02,4.95,14.5,5.2,22.29,5.21,18.51,.02,37.03,.04,55.54,.06-3.75-13.39-8.77-28.35-21.36-34.25,5.3-3.03,12.24-.08,16.33,4.45,4.09,4.53,6.38,10.39,9.95,15.34,13.18,18.27,39.27,19.94,61.79,19.9,3.65,0,7.49-.06,10.64-1.89,3.8-2.2,5.81-6.49,7.48-10.56,18.77-45.64,24.47-96.58,16.25-145.24,11.78,6.41,1.16,26.65,9.29,37.31,1.9-34.92,0-70.05-5.67-104.57,8.67,17.08,10.18,36.79,11.53,55.9,.74,10.48,1.48,20.97,2.22,31.45,6.63-36,13.26-71.99,19.88-107.99,.08,11.28,.16,22.56,.24,33.84,1.95-1.85,3.9-3.69,5.85-5.54-6.23,36.31-13.42,72.46-21.55,108.4,23.59,7.88,48.2,12.71,73.02,14.32,12.01,.78,24.65,.98,35.02,7.07,6.14,3.61,13.46,4.51,20.53,5.34,38.6,4.5,78.7,8.86,115.53-3.54,2.59-.87,5.23-1.87,7.23-3.74,2.66-2.49,3.8-6.17,4.73-9.7,10.85-41.21,6.67-86.2-11.59-124.7-5.23-11.04-19.57-14.48-31.7-13.03-12.13,1.45-23.75,6.39-35.96,6.73-8.95,.25-17.77-1.97-26.71-2.47-8.94-.49-18.69,1.13-24.87,7.6,23.15,2.95,46.7,2.86,69.82-.29-11.1,5.81-23.76,8.61-36.27,8.03,11.71,1.04,23.42,2.09,35.13,3.13-21.04,5.61-43.7,4.95-64.38-1.87,8.09,11.11,17.64,21.8,30.24,27.28-8.94,1.36-18.47-2.07-24.47-8.83-29.62-33.31-61.66-64.46-95.79-93.13-37.09-31.16-81.45-60.81-129.68-56.38,2.97,28.3-9.26,57.75-31.4,75.62-6.12,4.94-13.4,9.17-21.26,9.08-11.25-.13-20.33-8.78-28.15-16.86,1.65,17.97,3.3,35.95,4.95,53.92,.46,4.97,1.5,10.83,6.04,12.93,2.41,1.11,5.23,.82,7.75,1.65,2.52,.83,4.77,3.86,3.22,6.01-5.04-2.11-10.57-4.26-15.82-2.76-5.25,1.5-9.02,8.54-5.39,12.62,1.02,1.14,2.42,1.86,3.79,2.54,16.5,8.28,33.01,16.57,49.51,24.85l-22.09-29.84c12.46,10.12,24.91,20.23,37.37,30.35-4.56-18.52-7.69-37.4-9.34-56.41-1.37-15.86-1.69-32.1,2.6-47.43,4.29-15.33,13.74-29.81,27.87-37.15,17.79-9.24,40.4-5.52,56.98,5.75,16.58,11.27,27.81,29,35.37,47.56-10.75-16.82-22.46-33.85-39.39-44.41-16.94-10.56-40.51-13-56.17-.62-13.58,10.75-17.91,29.38-19.22,46.65-1.88,24.89,.71,50.12,7.63,74.11,8.87-27.84,12.61-57.3,10.97-86.47,14.43,48.09-15.43,100.93-1.98,149.3,4.62-10.5,9.24-20.99,13.85-31.49-3.2,24.95-12.09,49.14-25.8,70.23m-246.5,6.3c.16,1.97-.91,3.99-2.63,4.96-10-7.51-21.21-13.41-33.05-17.43,4.22,12.47,19.46,16.69,29.12,25.63,.8,.74,1.62,1.67,1.5,2.75-.27,2.49-4.09,1.84-6.19,.47-6.16-4.02-12.32-8.03-18.49-12.05,9.44,15.32,24.38,27.17,41.44,32.9,9.89,3.32,20.32,4.61,30.67,5.89,15.4,1.9,30.8,3.79,46.21,5.69,.26-10.89,.52-21.78,.79-32.67,.05-1.97-.07-4.29-1.7-5.4-9.13-6.24-14.86-16.23-20.28-25.88-5.12-9.12-10.24-18.23-15.36-27.35-4.17-7.43-8.34-14.86-12.52-22.29-2.38-4.24-4.49-10.28-.7-13.35,13.53,24.68,27.07,49.35,40.6,74.03,2.5,4.56,6.75,9.88,11.69,8.26,17.76-5.81,39.57,7.89,54.83-2.89,4.74-3.35,12.2,3.98,16.63,.24,2.89-2.44,1.4-7.1-.32-10.48-25.31-49.86-50.63-99.71-75.94-149.57-.7-1.38-1.52-2.87-2.97-3.4-1.47-.54-3.08,.09-4.52,.7-36.88,15.85-73.76,31.7-110.65,47.54-.76,.33-1.58,.71-1.94,1.46-.46,.95,0,2.06,.46,3,9.42,19.35,18.84,38.7,28.26,58.04,1.44,2.97,2.92,5.98,5.19,8.38,3.25,3.43,7.8,5.27,12.25,6.85,9.33,3.31,18.9,5.94,28.61,7.86-4.7-7.94-9.44-15.98-12.06-24.83-2.61-8.85-2.92-18.73,1.12-27.02,1-2.06,2.54-4.18,4.8-4.52,2.27-.33,4.65,2.52,3.16,4.25-8.26,6.39-7.55,19.22-3.6,28.89,3.95,9.66,10.37,18.65,11.19,29.06-23.23-2.74-45.67-11.92-64.16-26.25-8.68-6.73-16.93-14.8-27.55-17.62,11,18.75,26.68,34.73,45.21,46.09,1.66,1.02,3.4,3.52,1.7,4.47-.61,.34-1.38,.18-2.05,0-11.77-3.18-22.82-9.01-32.08-16.94-8.35-7.15-16.31-16.49-27.27-17.45,1.97,4.02,6.75,6.45,11.15,5.67-2.67,3.14-.07,7.87,2.64,10.97,12.74,14.52,28.89,26.02,46.78,33.31m574.51-185.18c10.73-2.3,22-1,32.7-3.42,28.34-6.43,57.75,1.31,85.77,9-1.25-43.51-2.51-87.01-3.76-130.52-66.42,7.83-133.36,11.23-200.23,10.15-2.75-.04-3.52,3.73-3.38,6.48,2.1,40.46,4.2,80.93,6.3,121.39,22.06-.41,44.5-.89,65.5-7.68,5.69-1.84,11.26-4.14,17.1-5.4m316.49-55.37c-3.01,23.55-.55,47.41,1.91,71.03,.58,5.6,2.23,12.49,7.72,13.77,8.42,1.96,16.43,5.68,23.36,10.84,1.62,1.21,3.29,2.65,3.69,4.64,1.01,4.97-5.83,7.38-10.9,7.68-29.47,1.7-58.95,3.4-88.42,5.11,32.84,2.93,65.87,3.74,98.81,2.42,8.23-.33,15.64,5.69,19.55,12.94,3.91,7.25,5.06,15.62,6.38,23.75,1.19,7.33,2.95,15.29,8.81,19.85,2.73-49.22,5.38-98.63,1.38-147.77-3.51-43.17-12.13-85.79-16.15-128.92-4.03-43.13-3.27-87.63,11.39-128.38,7.65-21.25,18.94-41.12,25.43-62.76,1.16-3.86-1.28-8.17-4.84-10.05s-7.9-1.73-11.78-.62c-14.96,4.31-22.7,20.29-29.61,34.25-8.34,16.86-18,33.06-28.87,48.41-5.84,8.25-6.1,19.07-6.14,29.17l-.35,82.62c-.1,24.67-.22,49.48-4.33,73.81-2.16,12.78-5.41,25.38-7.05,38.24M209.79,301.98c.83,5.07,5.9,8.58,10.99,9.31s10.21-.71,15.14-2.13c-2.32-1.64-2.76-5.38-.87-7.51,4.89,3.85,8.15,10.49,6.19,16.4-1.96,5.91-10.47,9.11-14.89,4.72-1.08-1.07-3.01-1.13-4.16-.13,3.7,7.84,4.91,16.8,9.51,24.16s14.82,12.56,21.96,7.64c10.34-7.12,23.73-7.52,36.28-7.66,.75,0,1.57,0,2.13,.5,.54,.47,.69,1.24,.78,1.95,1.28,9.36-.91,19.97-8.46,25.64-7.55,5.67-20.85,3.02-23.18-6.13-.35-1.9,2.87-.96,4.31,.33,4.27,3.85,11.39,2.61,15.74-1.15,4.35-3.76,6.61-9.34,8.72-14.69-3.22-1.54-6.95,.83-9.29,3.52-2.34,2.69-4.38,6-7.76,7.14-3.06,1.03-6.4-.02-9.63,0s-7.09,2.07-6.78,5.29c4.28,5.22,8.56,10.43,12.84,15.65,3.19,3.89,6.58,7.93,11.26,9.77,5.79,2.28,12.56,.65,17.7-2.86,5.14-3.5,8.91-8.65,12.27-13.88,7.02-10.93,12.7-22.72,16.88-35.02,1.16-3.42,5.22-7.54,7.36-4.64-6.11,11.33-9.39,24.16-9.49,37.02-.03,4.03,.49,8.55,3.61,11.1,6.44,5.24,12.87,10.48,19.31,15.72,5.62,4.58,12.61,9.45,19.52,7.25,3.55-1.13,6.27-3.96,8.63-6.84,12.05-14.67,18.92-33.52,19.14-52.5,.05-3.96-1.05-8.99-4.95-9.7-17.46-3.17-32.76-16.27-38.6-33.03-2.9-.18-6.01-.45-8.27-2.28-2.25-1.84-2.9-5.86-.49-7.49,3.37-2.28,3.93-6.92,4.18-10.97,.46-7.51,.83-15.45-2.61-22.15-3.44-6.7-12.16-11.29-18.73-7.61-3.2,1.79-5.22,5.08-7.76,7.72-2.54,2.64-6.39,4.79-9.78,3.36-1.9-.8-3.2-2.56-4.38-4.26-7.15-10.35-13.17-21.47-17.94-33.1-2.25-5.49-9.44-7.45-15.16-5.89-5.72,1.56-10.32,5.68-14.83,9.53-4.51,3.85-9.46,7.7-15.33,8.51-5.51,.77-7.79,7.24-9.92,12.38-2.13,5.14-7.79,10.59-12.44,7.54-5.79-3.79-14.23,.16-17.09,6.46-2.85,6.3-1.41,13.75,1.32,20.11,.5,1.16,1.41,2.51,2.65,2.28,8.49-1.57,17.72,2.01,22.94,8.9-6.14,1-12.35,1.57-18.57,1.73m495.89-38.2c.08,3.76,.06,7.85-2.28,10.79-2.47,3.11-6.76,3.99-10.69,4.55-16.98,2.39-34.25,2.68-51.3,.86-6.62-.71-11.79-6.52-13.81-12.86-2.03-6.34-1.54-13.18-1.04-19.82-24.59,2.38-48.93,7.24-72.55,14.47-11.21,3.44-22.97,7.92-29.8,17.45,8.98,6,19.77,8.56,30.37,10.65,70.76,13.96,143.65,11.84,215.65,7.54,68.92-4.12,138.54-10.34,203.9-32.59,4.68-1.59,4.9-8.8,1.47-12.36-3.43-3.56-8.72-4.42-13.62-5.08-2.09-.28-4.35-.54-6.22,.44-1.87,.98-2.93,3.74-1.48,5.27,1.97,2.07,.95,5.75-1.31,7.51-2.26,1.75-5.28,2.11-8.13,2.4-58.45,5.95-116.9,11.91-175.35,17.86,4.12-7.04-11.44-12.66-9.77-20.65,1.4-6.72-7.07-11.18-13.93-11.42s-14.77,.88-19.63-3.96c4.24,.02,8.43-2.29,10.67-5.89-10.54,1.11-21.07,2.23-31.61,3.34,.16,7.17,.31,14.33,.47,21.5m347.46,88.13c10.23-51.56,5.38-104.74,6.4-157.29,.63-32.08,3.47-64.13,8.49-95.82-2.4-.29-4.34,1.84-5.71,3.83-19.22,27.89-14.55,65.88-27.87,97.03-1.93,4.51-4.26,8.94-5.09,13.78-1.14,6.62,.6,13.35,1.81,19.96,12.38,68.04-32.8,136.57-21.33,204.77,.47,2.78,1.05,5.6,2.43,8.07,2.69,4.78,7.94,7.48,13.06,9.45,8.3,3.19,17.05,5.2,25.92,5.94-7.05-18.04-9.92-37.7-8.3-57,1.49-17.84,6.71-35.13,10.2-52.69M101.86,575.95c-2.99-2.65,.22-8.1,4.2-8.46,3.98-.36,7.52,2.32,10.61,4.85,7.97,6.52,15.93,13.05,23.9,19.57-9.59-12.06-19.18-24.12-28.77-36.18,2.13-4.48,8.31-6.47,12.65-4.06-5.03-9.6-10.06-19.2-15.09-28.79-2.5-4.78-5.43-9.94-10.49-11.82-27.16-10.08-54.65-19.29-82.41-27.6,28.38,51.92,57.29,103.55,86.74,154.87,1.61,2.8,3.25,5.64,5.6,7.86,3.2,3.01,7.43,4.61,11.55,6.14,21.57,8.01,43.14,16.03,64.72,24.04,.22-6.53-8.08-9.12-14.28-11.19-15.51-5.17-26.6-18.55-36.83-31.3-2.17-2.71-4.42-5.58-4.99-9-3.15-18.74-12.88-36.31-27.1-48.92m249.74,34.96c-1.56,.26-3.23-.77-3.69-2.28,5.53-14.43,1.15-32.1-10.5-42.26-2.21-1.93-4.7-3.66-6.28-6.15-1.55-2.44-2.06-5.37-2.51-8.22-2.92-18.47-4.43-37.17-4.5-55.87,0-1.93-2.22-3.21-4.14-3.03s-3.58,1.32-5.24,2.31c-8.31,4.93-18.67,6.27-27.96,3.63-4.15-1.18-10.18-2.19-11.38,1.95,18.73,37.15,37.46,74.31,56.19,111.46,2,3.97,4.44,8.32,8.7,9.57,2.68,.79,5.56,.16,8.26-.55,6.74-1.78,13.76-4.38,17.92-9.98,3.45-4.65,4.39-10.63,5.52-16.31,3.44-17.27,9.59-33.99,18.18-49.36-9.29,.55-18.65,.02-27.82-1.57,8.19-5.36,18.84-4.39,28.56-3.21,1.42,.17,2.36-1.7,1.88-3.05s-1.78-2.19-3-2.94c-8.24-5.05-16.48-10.09-24.72-15.14-5.19-3.18-10.57-6.43-16.6-7.27-6.03-.84-12.92,1.36-15.73,6.77-1.79,3.45-1.66,7.57-1.16,11.42,1.6,12.28,6.54,24.1,14.17,33.86,10.04,12.85,12.37,31.28,5.84,46.22M674.76,168.84c-4.85,3.16-12.22,1.29-15-3.79-2.82-5.16-13.05,.83-16-4.26,3.02-2.11,5.86-5.41,5.27-9.06-.59-3.64-6.6-5.42-7.92-1.98,1.57,2.34,3.14,4.68,4.71,7.02-5.12-.58-6.9,6.58-6.69,11.73,1.35,32.88,2.7,65.77,4.05,98.65,.09,2.1,.23,4.37,1.57,6,1.61,1.96,4.4,2.36,6.93,2.57,14.59,1.18,29.35,.31,43.71-2.58,1.75-.35,3.61-.8,4.84-2.09,1.63-1.71,1.67-4.34,1.61-6.7-.82-32.26-1.64-64.53-2.46-96.79-.06-2.43-.21-5.08-1.85-6.87-1.64-1.79-5.3-1.68-5.92,.67,2.59,1.82,4.39,5.25,3.18,8.17-1.21,2.92-6.22,3.57-7.37,.62,1.17-.74,2.33-1.48,3.5-2.23,.48-4.29-3.37-8.55-7.69-8.51,1.32,2.94,2.46,6.14,2.04,9.34-.42,3.2-2.86,6.34-6.08,6.54-3.22,.19-6.19-3.75-4.43-6.46m-152.25,117.47c-2.75,6.26,5.49,11.47,12.08,13.28,83.73,22.9,172.18,20.12,258.73,13.45,57.71-4.44,115.72-10.61,171.13-27.38,4.8-1.45,9.75-3.08,13.45-6.47,3.7-3.39,5.81-9.04,3.63-13.57-39.38,18.21-82.99,24.97-126.11,29.83-46.44,5.24-93.11,8.51-139.83,9.81-64.92,1.8-130.84-.36-193.07-18.95m508.47-148.03c6.05-43.52,42.3-77.29,53.02-119.9-29.82,13.32-53.42,39.89-63.14,71.08-1.62,5.2-2.87,10.5-4.12,15.8-3.59,15.24-7.18,30.48-10.76,45.72-.78,3.31-5.16,3.74-8.47,4.54-7,1.69-12.14,8.01-14.42,14.84-2.28,6.83-2.2,14.19-2.1,21.4,.03,2.12,.15,4.48,1.65,5.98,2.8,2.8,7.55,.42,10.45-2.27,8.05-7.48,13.99-17.2,16.98-27.78,1.39-4.91,3.72-11.27,8.8-10.95,4.07,.26,7.71-2.88,9.47-6.57,1.76-3.68,2.07-7.85,2.63-11.89M260.65,396.74c-13.77-1.78-25.49-13.95-26.74-27.78,1.35-3.33,6.11-3.02,9.6-2.16,3.49,.86,8.31,1.01,9.48-2.39-5.4,2.34-9.98-5.6-15.84-6.17-3.09-.3-5.93,1.52-8.5,3.26-2.5,1.7-5.09,3.49-6.58,6.12-1.49,2.63-1.51,6.36,.78,8.33,4.71,4.05,4.72,11.21,7.09,16.96,6.45,15.63,28.17,17.68,39.85,29.9,5.95,6.23,8.95,15.16,7.97,23.72-.28,2.48,3.06,3.5,5.55,3.61,5.5,.23,11.01,.46,16.51,.69,3.86,.16,8.15,.18,11.05-2.38,3.16-2.8,3.43-7.56,3.47-11.79,.11-13.33,.2-26.9-3.67-39.66-6.16-.23-12.38,1.94-17.05,5.95,6.66,4.54,9.94,13.49,7.79,21.26-1.13-1.22-2.82-1.89-4.48-1.79-.84,1.67-1.22,3.57-1.09,5.43-2.68,.56-2.9-3.73-2.49-6.44,1.13-7.57-4.05-14.95-10.66-18.79s-14.43-4.9-22.02-5.87m-59.3-190.69c1.71-2.47,4.11-5.24,7.07-4.7,3.06,.56,7.1,4.05,8.21,1.14,1.98-5.17,8.79-6.09,14.33-6.12,9.52-.05,19.38,.13,27.99,4.18,10.26,4.83,20.52,9.65,30.78,14.48,3.87,1.82,7.97,3.85,10.11,7.55,2.05,3.55,1.86,7.91,2.77,11.91,.91,4,3.91,8.26,8,7.91-.92-10.2-1.96-20.76-7.04-29.65-4.57-7.99-12.03-13.92-19.82-18.84-8.59-5.42-17.9-9.9-27.84-11.97-29.36-6.12-61.83,12.28-71.66,40.62-.78,2.26,.71,6.14,2.51,4.57,4.87-7.02,9.73-14.04,14.6-21.06m720.21,14.96c-14.37,4.28-29.24,6.59-44.06,8.9-5.17,.8-10.34,1.61-15.51,2.41-19.44,3.02-38.88,6.04-58.35,8.89-1.16,3.16,1.35,6.7,4.48,7.91,3.14,1.21,6.64,.73,9.96,.23,37.6-5.64,75.2-11.27,112.81-16.91,2.82-.42,6-1.07,7.49-3.5,2.12-3.46-1-8.18-4.9-9.29-3.9-1.11-8.02,.2-11.91,1.36M323.47,452.47c-.01-1.02-.05-2.12-.66-2.94-1.67-2.21-5.06-.29-7.3,1.34-8.84,6.49-20.93,6.62-31.61,4.12-3.24-.76-7.5-1.32-9.11,1.59-.65,1.17-.61,2.58-.56,3.91,.25,6.3,.5,12.6,.75,18.89,.06,1.41,.11,2.83,.41,4.21,.61,2.87,2.04,6.37-.14,8.33,1.38,1.03,3.28,1.31,4.9,.74,1.98-1.52,1.48-4.56,.99-7.01-.49-2.45-.33-5.72,2.04-6.51,1.51-.5,1.37-2.64,1.09-4.2-.85-4.76-.11-9.79,2.08-14.1,1.74,1.6,1.95,4.23,2.05,6.59,.31,7.6,.63,15.2,.94,22.81-1.91-1.19-4.74-.48-5.87,1.47,3.31,1.17,6.53,2.63,9.6,4.34-.22-11.18-.44-22.37-.65-33.55-.74-1.1,1.28-2.31,2.33-1.52,1.06,.8,1.14,2.32,1.12,3.65-.1,9.33-.2,18.67-.3,28-.01,1.31,.27,3.01,1.56,3.24,1.63,.29,2.29-2.03,2.24-3.69-.25-8.53-.5-17.06-.74-25.59-.07-2.43,.34-5.55,2.69-6.16,.24,9.36,.49,18.73,.73,28.09,.03,1.27,.12,2.68,1.04,3.56,1.81,1.75,5.04-.41,5.35-2.9,.31-2.5-1.05-4.85-1.93-7.2-1.78-4.76-1.64-10-1.49-15.08,.08-2.67,.61-5.96,3.15-6.79-.48,6.23-.45,12.49,.09,18.72,.13,1.48,1.12,3.49,2.47,2.86-.01-6.38-.03-12.76-.04-19.13,0-2.22,.57-5.13,2.78-5.37,1.41,10.94,.59,22.16-2.4,32.78,.71,.48,1.61,.66,2.45,.5,.28-2.74,3.34-4.82,5.99-4.08-2.83-5.43-2.77-11.85-2.65-17.97,.07-3.32,.14-6.65,.2-9.97,.04-2.02,.4-4.51,2.3-5.2,.04,8.04,.08,16.08,.11,24.13,.01,2.45,1.18,5.87,3.55,5.22,.39-10.03,.53-20.08,.43-30.12M919.97,202.92c-28.94-1.81-57.88-3.61-86.82-5.42-5.32-.33-10.68-.66-15.97,0-3.56,.44-7.06,1.32-10.54,2.2-10.21,2.58-20.41,5.16-30.62,7.74,23.34-.81,46.72-.3,70,1.55,8.76,.69,17.51,1.58,26.29,1.65,16.17,.14,32.35-2.48,47.65-7.72m-152.16,51.65c2.76,6.97,12.35,7.3,19.79,6.46,50.44-5.69,100.97-10.53,151.57-14.53,3.3-.26,3.7-5.6,1.08-7.62-2.62-2.02-6.31-1.64-9.58-1.17-32.68,4.76-65.36,9.52-98.04,14.27-16.24,2.36-32.8,4.73-48.99,2-6.81-1.15-14.68-2.93-19.93,1.56,1.41,.38,3.01,0,4.1-.99m-30.06-23.37c15.66-.04,31.32,1.09,46.81,3.37,8.98,1.32,18.24,3.02,27.01,.68,13.67-3.64,27.96-4.96,42.07-3.87,.2-3.05-3.81-4.28-6.86-4.49-15.79-1.07-31.58-2.14-47.37-3.2-20.95-1.42-43.22-2.56-61.65,7.51M91.43,491.74c1.56-.53,2.52-2.4,2.04-3.98-2.76,2.81-7.45,1.45-11.07-.09-16.82-7.15-33.63-14.29-50.45-21.44-1.74,1.59,.79,4.18,2.96,5.11,24.61,10.53,49.22,21.07,73.82,31.6,1.34,.57,2.93,1.14,4.19,.41,27.03-15.67,54.42-30.89,83.31-42.78,11.94-4.91,24.12-9.25,36.48-12.99-15.58-2.18-30.74,5.13-44.78,12.23-22.11,11.18-44.23,22.37-66.34,33.55-5.62,2.84-11.44,5.74-17.73,6.16,1.32-3.08,5.08-4.88,8.31-3.97-3.68-2.21-7.99-3.37-12.29-3.3,1.61,.4,2.07,2.96,.69,3.89-1.02-1.35-2.04-2.7-3.06-4.06-1.94,.82-4.25,.69-6.08-.35m219.28-102c7.86,6.58,9.94,17.96,8.96,28.16-.63,6.56-1.98,14.15,2.56,18.92,5.33,5.6,5.85,14.1,6.06,21.83,.13,4.91,.27,9.82,.4,14.72,.05,1.85,.48,4.2,2.29,4.59,4.59-11.76,2.13-24.94-.05-37.37s-3.86-25.92,1.99-37.11c.63-1.21,1.37-2.44,1.48-3.8,.18-2.31-1.45-4.35-3.17-5.89-4.17-3.74-9.51-6.17-15.07-6.86-2.31-.29-5.5,.48-5.45,2.81m-35,250.88c5.47,.11,11.06,.23,16.16,2.19,.99,.38,2.08,.99,2.23,2.04,.29,2.04-2.79,2.48-4.81,2.06-8.95-1.85-18.1-2.73-27.24-2.62-.86,0-1.83,.09-2.36,.76-.4,.52-.41,1.23-.4,1.88,.08,4.53,.15,9.05,.23,13.58,.01,.86,.06,1.79,.61,2.44,.51,.6,1.33,.81,2.09,.98,11.61,2.62,23.59,3.61,35.47,2.95,.88-.82,.46-2.4-.51-3.1-.97-.7-2.24-.78-3.44-.83-8.7-.35-17.39-.71-26.09-1.06-1.63-.07-3.44-.21-4.54-1.42-1.1-1.2-.5-3.75,1.13-3.65,9.27,.57,18.55,1.14,27.82,1.71,1.6,.1,3.26,.19,4.73-.43,1.48-.61,2.7-2.16,2.39-3.73-1.08-5.54-.34-11.42,2.08-16.52,.76-1.59-.3-3.57-1.82-4.45s-3.37-.95-5.14-1c-10.79-.29-21.59-.58-32.38-.86-.42-.01-.88-.01-1.23,.22-.74,.49-.51,1.73,.2,2.26,.71,.52,1.67,.54,2.55,.54,7.23-.04,14.47-.09,21.7-.13,2.06-.01,4.21,0,6.08,.85,1.88,.86,3.41,2.84,3.07,4.88-9.62-3.42-20.13-2.93-30.32-2.37-1.94,.11-4.38,.61-4.79,2.51,5.51,.11,11.02,.21,16.52,.32m-141.92-83.14c2.15,2.52,4.73,4.64,7.29,6.74,5.19,4.26,10.37,8.52,15.56,12.78-9.72-19.65-19.45-39.29-29.17-58.94-.46-.93-1.02-1.95-2-2.27-1.67-.55-3.17,1.17-4.87,1.62-2.61,.69-6.52-1.18-7.43,1.36-.35,.99,.15,2.06,.64,2.98,4.46,8.41,8.93,16.83,13.39,25.24,1.94,3.66,3.9,7.35,6.59,10.5m5.76-62.43c-7.41-.41-14.92,3.27-19.14,9.37,2.14,1.23,4.28,2.46,6.42,3.7-.34-2.92,1.07-5.99,3.52-7.63,4.38,1.84,9.29-.52,13.46-2.79,24.82-13.5,50.29-25.82,76.28-36.9,4.01,1.27,8.52,2.51,12.26,.59s4.66-8.55,.67-9.88c-1.82-.61-3.8,.14-5.52,1.01-7.24,3.66-15.44,9.76-22.48,5.71,.27,1.23,.54,2.46,.8,3.68-21.91,10.41-43.82,20.82-65.73,31.23l-.54,1.9M766.4,248.27c3.5-2.71,8.5-1.49,12.82-.53,5.98,1.33,12.13,1.9,18.25,1.7,.74-.02,1.52-.07,2.16-.45,2.19-1.29,1.05-4.94,2.66-6.91-19.9-2.34-39.82-4.47-59.76-6.39-1.31-.13-2.73-.22-3.82,.51-1.88,1.26-1.53,4.39,.17,5.88,1.7,1.49,4.16,1.73,6.42,1.64,2.26-.09,4.58-.44,6.76,.17,2.55,.7,4.57,2.6,6.86,3.94,2.28,1.34,5.36,2.07,7.46,.45m18.86,287.11c7.06-.25,14.12-.51,21.18-.76,.83-1.27,.14-3.1-1.12-3.94-1.26-.85-2.88-.92-4.39-.79-4.05,.36-7.9,2.03-11.96,2.39s-8.8-1.13-10.22-4.94c8.96-.74,17.94-1.17,26.92-1.29,.44-.97,.59-2.07,.41-3.12-2.47-.23-4.96-.1-7.43,.04-7.67,.42-15.34,.84-23.02,1.26,.27,5.27,.55,10.53,.82,15.8,.05,.95,.12,1.96,.7,2.71,.82,1.07,2.34,1.23,3.69,1.31,8.8,.49,17.6,.97,26.4,1.46-.48-2.04-.97-4.09-1.45-6.13-6.55,.19-13.09,.38-19.64,.57-2.61,.08-5.77-.14-7.01-2.44,1.32-1.81,3.88-2.05,6.11-2.13M33.19,478.56c1.54-1.85,6.1,.26,6.25-2.14-3.34,.31-6.8-.88-9.23-3.2-.54-.51-1.4,.3-1.4,1.04,0,.74,.37,1.48,.18,2.19-.65,2.51-6.37,1.02-6.06,3.59,26.66,9.12,53.38,18.03,80.18,26.73,1.11-1.17-.51-2.92-1.96-3.62-11.08-5.3-24.73-6.13-33.36-14.88-6.92,1.39-13.96-1.12-20.58-3.59-2.54-.95-5.62-2.8-5.05-5.46-2.03,.34-3.61,2.03-5.6,2.56-2,.52-4.7-1.63-3.37-3.21M640.46,102.66c2.15,2.89,6.88,3.36,9.56,.95,2.68-2.41,2.71-7.16,.06-9.6-3.98,.84-7.95,1.69-11.93,2.53-2.01,.43-2.57,3.04-2.38,5.09,.19,2.05,.6,4.4-.79,5.92-3.89,4.23-7.41,8.8-10.52,13.63-1.26,1.95-.3,4.7,1.48,6.18,1.78,1.48,4.14,2.02,6.4,2.51,1.18-1.33-.33-3.3-1.75-4.36-1.42-1.06-3.03-2.9-1.98-4.34,.75-1.02,2.29-.89,3.54-.63,4.31,.89,8.59,1.93,12.83,3.11-2.6-4.52-7.8-7.43-13.01-7.28,1.06-2.28,3.62-3.37,5.5-5.04,1.88-1.66,2.91-5.08,.8-6.44,.74-.74,1.48-1.49,2.23-2.23m292.02,110.82c.06-2.61,.13-5.22,.19-7.83-11.26,2.04-22.41,4.64-33.41,7.79-1.9,.54-3.99,1.25-4.92,2.99-1.49,2.76,2.05,6.51,4.89,5.19,10.37-4.83,22.37-4.61,33.25-8.14m-173.62,233.86c-4.06,.82-8.5-.64-11.28-3.71,.3-1.42,2.21-1.8,3.6-1.39,1.39,.41,2.67,1.3,4.12,1.3,1.45,0,2.95-1.68,2.05-2.82-3.59-.73-7.26-1.07-10.93-1-.55,.01-1.13,.04-1.6,.34-.91,.59-.94,1.92-.67,2.97,1.01,3.84,4.67,6.52,8.51,7.52,3.84,.99,7.89,.6,11.84,.21,2.18-.22,4.35-.44,6.53-.66,1.15-.12,2.44-.19,3.34,.55,.89,.74,.72,2.59-.44,2.68-5.83,.45-11.66,.89-17.5,1.34-1.11,.08-2.62,.76-2.2,1.79,9.25,0,18.49,0,27.74,0,.08-3.06-1.76-6.09-4.52-7.43,1.21-.33,1.21-2.24,.24-3.03-.97-.79-2.35-.77-3.59-.69-5.12,.34-10.21,1.02-15.24,2.03m45.32,60.49c.12-1.53-.06-3.09-.55-4.55-5.48,.77-10.96,1.55-16.44,2.32-2.57,.36-5.22,.72-7.72,.04s-4.83-2.68-5.06-5.26c7.99-.42,15.98-.84,23.97-1.26,1.8-.09,3.95-.42,4.69-2.06-11.56-.53-23.15-.45-34.69,.25,2.74,1.07,2.64,4.88,2.51,7.81-.13,2.94,1.49,6.9,4.34,6.18,9.45-2.38,19.2-3.55,28.95-3.47m-118.33-368.84c.68,1.29,.12,2.86,.27,4.31,.15,1.45,2.05,2.87,2.92,1.71,2.59-2.36,4.33-5.63,4.84-9.09-2.16,.1-4.23,1.4-5.27,3.3-.66-.66-1.32-1.33-1.97-1.99,.79-2.55,2.75-4.71,5.21-5.75,1.19-1.18-.06-3.36-1.68-3.81s-3.32,.12-5,.23-3.71-.53-4.07-2.17c-1.01-4.53-7.53-6.62-10.99-3.53,1.46,1.24,1.47,3.43,1.86,5.31,.25,1.19,.69,2.33,1.13,3.47,1.48,3.81,2.97,7.62,4.45,11.43,.57,1.47,1.47,3.19,3.05,3.26,.45-2.49,.9-5.03,.52-7.53s-1.74-4.99-4.03-6.06c-2.26-1.05-3.19-4.25-1.85-6.35,4.34,3.69,7.96,8.22,10.62,13.25m-284.21,202.82c3.5,1.81,6.14,5.21,7.03,9.05-2.54-1.73-5.64-2.64-8.72-2.55-1.23,3.31-2.02,7.91,1.08,9.6,3.96,2.16,7.93,4.33,11.89,6.49,.56-.71,.82-1.66,.7-2.56-3.45-2.27-6.9-4.53-10.35-6.8-.59-.39-1.24-.87-1.32-1.57-.17-1.55,2.31-1.8,3.6-.91s2.61,2.3,4.1,1.85c1.65-.5,2.72-3.14,4.26-2.38,1.02,.5,2.05-.97,1.72-2.05-.33-1.08-1.35-1.78-2.15-2.57s-1.46-2.05-.88-3.02c1.51-2.52,.97-6.06-1.19-8.06s-5.68-2.28-8.16-.7c.67,1.33,2.13,2.22,3.62,2.22,.43,.65,.54,1.5,.28,2.23-1.96-.62-4.27,.11-5.53,1.74m8.27,44.65c1.77-2.64-.9-6.1-3.74-7.53-2.84-1.42-6.34-2.33-7.8-5.15,1.81-2.05,5.2-.97,7.45,.59,2.25,1.55,4.74,3.55,7.38,2.87,1.51-1.55-.87-3.82-2.88-4.64-3.12-1.27-6.24-2.54-9.35-3.81,.14-1.91,2.74-2.66,4.54-1.99,1.8,.67,3.18,2.15,4.93,2.94s4.34,.47,4.88-1.37c-5.67-2.41-11.13-5.27-16.58-8.14,.99,4.9-.45,10.1-3.25,14.24-1.19,1.75,.69,3.94,2.42,5.15,3.78,2.64,7.8,4.93,11.99,6.85m-161.26-2.32c1.89,.75,3.92,1.08,5.93,1.41,3.84,.62,7.68,1.24,11.52,1.87-3.23-5.04-6.9-9.79-10.95-14.19-.71-.77-1.49-1.56-2.52-1.76-1.02-.2-2.28,.53-2.2,1.57,2.41,1.89,3.76,5.06,3.44,8.1-5.99-.66-8.04-10.01-14.05-10.52-.2,5.74,3.5,11.41,8.83,13.53m146.9,24.27c-2.08-3.84-5.31-7.05-9.17-9.11,.74-1.82,3.44-1.89,5.1-.83,1.66,1.06,2.73,2.83,4.27,4.05s4.05,1.74,5.32,.23c-2.42-4.01-5.96-7.33-10.12-9.5-.83-.43-1.82-.82-2.68-.44-.48,.22-.83,.64-1.16,1.06l-5.84,7.35c-.83,1.05-1.72,2.31-1.4,3.61,.19,.78,.78,1.39,1.35,1.96,2.58,2.58,5.5,5.32,9.14,5.59-1.6-3.14-4.08-5.82-7.08-7.67,1.34-2.06,4.53-.33,6.13,1.54s4.43,3.93,6.14,2.15m411.29,103.62c-4.38-.51-8.81,.16-13.17,.83-5.93,.91-11.86,1.82-17.78,2.73-.51,.08-1.04,.16-1.46,.46-1.26,.87-.73,3.02,.58,3.81s2.96,.61,4.47,.42c6.95-.9,13.9-1.8,20.85-2.7,1.63-.21,3.33-.44,4.71-1.34,1.38-.89,2.35-2.65,1.81-4.21m-29.61,44.26c9.62-.67,19.23-1.35,28.85-2.02,.46-.03,.96-.08,1.31-.38,1.28-1.1-.97-2.75-2.65-2.91-6.29-.6-12.57-1.2-18.86-1.8-2.48-.24-5.16-.43-7.31,.83-2.15,1.26-3.2,4.61-1.35,6.28m-92.64-435.67c.55,.9,1.49,1.46,2.4,1.99,4.36,2.54,8.72,5.07,13.08,7.61,1.28-1.46,.8-4.08-.92-4.98,1.81-1.79,3.67-3.63,4.69-5.97s1-5.3-.72-7.18c-.4-.43-.9-.81-1.49-.88-1.3-.16-2.33,1.32-2.21,2.63,.11,1.31,.98,2.42,1.8,3.44-1.77-.24-2.64,2-3.25,3.67-.61,1.67-2.87,3.34-3.89,1.87-2.88-4.16-7.38-7.16-12.32-8.22-1.76-.38-4.45,.61-3.68,2.23,.78,1.64,3.56,.21,5.04,1.27,.8,.57,.96,1.68,1.47,2.52M297.86,676.44c-.16-1.58-.33-3.16-.49-4.74-12.11-.08-24.36-.18-36.08-3.23-1.33-.35-2.18,1.74-1.38,2.86,.81,1.12,2.33,1.39,3.7,1.57l13.84,1.82,4.45,.58c5.29,.7,10.62,1.39,15.96,1.14m499.88-188.33c-9.26,0-18.52,0-27.78-.01-.67,0-1.38,.01-1.93,.39-1.15,.8-.77,2.75,.36,3.58,1.13,.83,2.64,.85,4.05,.84,9.45-.05,18.89-.1,28.34-.15-1.01-1.55-2.02-3.1-3.04-4.66m-21.59,73.96c.05,2.16,2.93,2.82,5.09,2.82,6.23,0,12.46,0,18.7,0,1.62,0,3.31-.01,4.76-.74,1.45-.73,2.57-2.4,2.11-3.95-9.88-.12-19.76-.15-29.63-.08-.34,.65-.68,1.3-1.02,1.95m-166.57-412.56c.59-1.72,2.84-2,4.61-2.43,1.77-.43,3.73-2.31,2.63-3.76-3.1,0-6.18,1.23-8.45,3.34-.86,.8-2.4-.13-2.51-1.3-.1-1.16,.74-2.21,1.67-2.91,1.27-.97,2.8-1.58,4.39-1.75,.82-1.2-.65-2.73-2.07-3.06-3.1-.73-6.6,1.22-7.6,4.24s.63,6.68,3.55,7.95c1.82,.79,3.12,2.4,4.57,3.76,1.45,1.35,3.36,2.54,5.3,2.14,1.94-.4,3.22-3.2,1.68-4.46-2.69,.45-5.54-.2-7.77-1.76m52.81,13.99c3.54,3.83,11.06,2.15,12.64-2.82,.7-2.21-.7-4.67-2.7-5.84-2-1.17-4.44-1.3-6.75-1.16-5.37,.32-10.65,1.96-15.26,4.72,2.7,1.79,6.3,1.25,9.38,.25s6.16-2.44,9.39-2.21c.99,.07,2.19,.53,2.27,1.52,.07,.93-.9,1.56-1.74,1.98-2.41,1.19-4.82,2.37-7.23,3.56M201.98,671.73c-3.54-.71-7.17-1.02-10.78-.92-1.11,.03-2.4,.2-2.95,1.16,2.13,2.92,4.35,5.93,7.47,7.77,3.11,1.85,7.38,2.24,10.2-.04-1.31-2.66-2.62-5.32-3.94-7.98m602.61-102.27c-8.62-.77-17.29-.96-25.93-.56-.73,.03-1.53,.1-2.08,.58-1.08,.94-.42,2.89,.84,3.57s2.8,.48,4.23,.31c7.46-.91,15.05-.72,22.45,.54,.16-1.48,.32-2.95,.48-4.43m-25.46,7.9c-1.24-.02-2.56-.03-3.62,.6s-1.72,2.15-1,3.16c10.1,.09,20.2,.18,30.3,.27,.93-.63,.65-2.19-.24-2.87-.89-.68-2.1-.73-3.22-.75-7.41-.14-14.81-.27-22.22-.41m-136.4-442.38c1.54,.76,2.82-1.32,3.77-2.76,1.1-1.67,2.87-2.89,4.83-3.31,.6-.13,1.25-.18,1.8,.1,1.43,.75,.87,3.06-.42,4.04-1.29,.97-3,1.29-4.23,2.33-1.23,1.05-1.5,3.48,.04,3.97,.9,.29,1.83-.28,2.6-.83,1.99-1.4,4.12-3,4.72-5.36,1.1-4.3-3.98-8.13-8.38-7.6-2.09,.25-4.16,1.21-5.37,2.93s-1.37,4.23-.06,5.87c.2,.25,.42,.47,.71,.61m159.7,458.83c-8.94-2.1-18.47-1.66-27.19,1.26-1.45,.49-2.89,1.05-4.21,1.83,6.56,4.04,14.84-1.95,22.53-1.44,3.2,.21,7.33,1.16,8.86-1.66m-41.26-124.07c7.2,.27,14.41,.54,21.61,.81,.97,.04,2.01,.05,2.81-.51,.94-.66,1.21-2.11,.57-3.07-9.73-.45-19.48-.39-29.2,.17-.09,1.84,2.37,2.53,4.21,2.6m41.37,119.5c.16-.73,.32-1.46,.48-2.19-8.4-1.03-16.9-1.23-25.34-.59-2.04,.16-4.79,1.46-3.99,3.34,9.62-.19,19.24-.37,28.85-.56m-142.54-459.53c-.2,1.61-1.07,3.14-2.36,4.12,1.21,3.51,4.41,6.27,8.07,6.94,3.67,.68,6.91,3.34,8.29,6.81,1.31-3.59-.08-7.98-3.22-10.15,.33-.6-.91-.86-1.31-.31-.41,.54-.46,1.36-1.04,1.72-.55,.34-1.27,.08-1.83-.26-2.82-1.71-4.37-5.28-3.71-8.51-.88-.43-1.91-.56-2.88-.36M252.55,360.37c2.63,.49,5.31-.29,7.87-1.07,4.24-1.29,8.49-2.57,12.73-3.86,2.11-.64,4.21-1.28,6.32-1.91-5.29-3.16-12.03-.93-17.75,1.37-3.34,1.34-6.8,2.77-9.17,5.47m536.58,114.64c-8.31,0-16.61,0-24.92,0-1.34,0-3.24,.74-2.74,1.99,.31,.76,1.32,.88,2.14,.88,8.91-.04,17.81-.08,26.72-.12l-1.2-2.74m-190.14-307.67c.72,.45,1.67,.5,2.43,.12,1.55-.81,1.13-3.07,1.14-4.82s2.3-3.71,3.16-2.19c1.58,2.81,6.1,3.27,8.21,.84-2.52-1.82-5.05-3.64-7.57-5.45-.5-.36-1.04-.74-1.66-.77-1.03-.05-1.84,.85-2.41,1.7-2.07,3.11-3.23,6.82-3.3,10.56m172.59,434.95c-.61,.03-1.3,.1-1.68,.58-1.07,1.32,1.43,2.58,3.13,2.48,6.92-.43,13.84-.86,20.75-1.29,.75-.57,.43-1.86-.35-2.38-.79-.52-1.8-.48-2.73-.43-6.37,.35-12.74,.7-19.11,1.05m-3.48-120.37c-1.4,.04-3.18,.37-3.47,1.74,9.95,.87,19.99,.8,29.92-.2,.59-.39,.4-1.39-.18-1.8-.58-.41-1.35-.41-2.06-.39-8.08,.22-16.15,.43-24.23,.65m-93.36-366.7c-.95-2.46,2.42-4.44,5.06-4.34,2.64,.1,5.64,.91,7.67-.79,1.14-.95,1.62-2.61,1.18-4.03-4.4-1.69-9.07,4.57-13.4,2.7-2.32-1-5.1,2.08-3.87,4.29-.12,1.62,1.94,2.94,3.37,2.16m78.57,345.39c1.49,2.18,4.57,2.37,7.21,2.34l22.18-.25c.42-.62,.57-1.41,.4-2.14-9.93-.27-19.87-.25-29.79,.06M616.96,95.64c-1.26,.1-2.12,1.46-2.13,2.73-.01,1.27,.6,2.45,1.19,3.57,1.58,3,3.75,6.4,7.14,6.57,.27-3.97-.97-8.03-3.41-11.17-.7-.9-1.66-1.79-2.79-1.7m9.69,7.6c-.88,2.56-.38,5.55,1.3,7.68,3.48-3.45,4.92-8.81,3.65-13.54-1.42-.92-3.49-.44-4.55,.88-1.05,1.33-1.12,3.28-.38,4.8m138.18,157.87c-.1,.48,.07,.96,.25,1.41,1.8,4.45,4.88,8.37,8.78,11.18,1.52-4.19-1.6-8.52-4.52-11.9-.62-.72-1.3-1.48-2.21-1.76s-2.11,.13-2.31,1.07m-55.66-137.62c1.57,2.3,3.84,4.11,6.44,5.12-.2-1.65-.43-3.38-1.38-4.75-2.12-3.08-7.73-2.45-9.11,1.03-1.38,3.48,2.28,7.79,5.94,6.99-.04-2.6-1.64-5.12-3.97-6.28,.69-.7,1.39-1.41,2.08-2.11m-108.03,25.27c-1.25-1.95-4.45-.86-5.76,1.05-1.32,1.9-1.82,4.38-3.54,5.92-1.08,.97-2.63,2.65-1.39,3.4,1.58,0,3.17,0,4.75,0,.61-1.05,.37-2.52-.54-3.31,3.37-.63,6.15-3.66,6.49-7.07m108.49-.43c-.46,.45-.91,.93-1.15,1.52-.81,2.06,1.8,4.21,3.95,3.67,2.15-.54,3.49-2.72,4.01-4.87,.52-2.15,.46-4.41,1.01-6.56-2.82,1.79-5.45,3.88-7.82,6.24m-10.79-11.49c.69,1.25,2.34,1.51,3.76,1.6,3.23,.2,6.47,.23,9.7,.09,.58-.67,.57-1.77-.01-2.43-1.88,.35-3.73-.6-5.38-1.54-1.66-.94-3.45-1.95-5.35-1.73s-3.64,2.34-2.71,4.01m3.34-42.02c-1.12-1.73-3.96-.74-5.15,.94-1.19,1.68-1.74,3.89-3.4,5.11-1.73,1.27-1.38,4.42,.58,5.28,1.96,.86,4.52-1.01,4.29-3.14-1.39,.72-2.68-1.67-1.72-2.91s2.79-1.3,4.35-1.1c.85-1.2,1.23-2.73,1.05-4.19m-9.56-9.4c-1.26-.21-2.47,.83-2.89,2.04-.43,1.21-.27,2.54-.1,3.81-1.84-.58-2.6-2.69-3.8-4.2s-4.12-2.13-4.66-.28c1.66,1.26,2.33,3.45,3.79,4.93,2.19,2.22,6.16,2.33,8.47,.24-.27-2.18-.54-4.36-.8-6.53M396.28,382.79c-.74-.46-1.69-.92-2.43-.47-1.28,.77-.2,2.73,.97,3.67,3.61,2.87,7.7,5.13,12.06,6.65,1.37-1.42-.5-3.61-2.18-4.64l-8.41-5.2m235.11-238.65c-3.08,.48-6.17,.97-9.25,1.45-.56,.09-1.14,.19-1.57,.55-1.11,.92-.33,2.92,1.02,3.44,1.34,.52,2.85,.07,4.22-.39,3.47-1.16,6.95-2.31,10.42-3.47-.52-1.79-2.99-1.87-4.83-1.58m-25.38-37.87c-.43-.26-.88-.53-1.38-.56-1.35-.06-2.11,1.77-1.56,3.01s1.84,1.94,3.04,2.56c2.54,1.3,5.08,2.6,7.62,3.91,1.06-.45,1.29-1.95,.77-2.97-.52-1.02-1.55-1.67-2.52-2.28-1.99-1.22-3.98-2.45-5.97-3.67m69.49-11.17c2.58,3.68,6.64,6.29,11.06,7.11,.26-2.69-1.09-5.47-3.36-6.92-2.27-1.46-5.36-1.53-7.7-.19m-16.24-10.52c1.67-1.28,3.1-3.01,3.54-5.08s-.34-4.45-2.17-5.5c-1.2-.69-2.76-.71-3.98-.07,2.74,1.91,2.59,6.71-.26,8.44,.65,1.04,1.69,1.84,2.87,2.2M359.46,425.86c-1.04-3.09-2.07-6.18-3.11-9.27-2.85-1.4-6.66-.35-8.4,2.3,1.15,.74,2.83,.51,3.74-.52,1.95,3.06,4.64,5.65,7.77,7.49m24.56-6.79c.93-2-.91-4.18-2.74-5.41-1.83-1.23-4.06-2.53-4.31-4.72-1.43-.13-2.9,.68-3.57,1.95,2.55,3.76,6.33,6.67,10.62,8.18M642.67,84.59c.79,0,1.59,0,2.38,0,.38-.6,.52-1.34,.38-2.03-2-.53-4.2-.75-6.07,.13-1.87,.88-3.2,3.14-2.46,5.07,1.1,2.85,5.11,2.76,8.1,2.16,.94-.93-.75-2.3-2.06-2.23-1.32,.06-3.03,.34-3.6-.85-.75-1.55,1.66-2.7,3.37-2.52M378.83,423.68c1-.65,.95-2.22,.26-3.2-.69-.97-1.81-1.53-2.82-2.18-2.08-1.33-3.83-3.16-5.06-5.3-1.47-.5-3.14,.37-4.01,1.66,3.88,3,7.76,6.01,11.63,9.01m302.32-254.83c.51-3.29-.09-6.74-1.68-9.66-2.92,3.34-3.42,8.58-1.19,12.41,1.4,.65,2.63-1.22,2.87-2.75m-98.19-17.91c-1.01-.07-2.11-.11-2.95,.46-1.48,1.01-1.29,3.21-.94,4.96,3.84,.54,7.91-1.59,9.67-5.05-1.93-.13-3.86-.25-5.78-.38m130.72-45.79c-1.45-4.88-8.35-7.09-12.37-3.97,3.63,2.47,7.98,3.86,12.37,3.97M404.07,395.24c-2.99-1.91-5.97-3.81-8.96-5.72-.58-.37-1.19-.75-1.88-.83-1.12-.12-2.25,.74-2.44,1.85,5.28-.08,8.76,8.33,13.69,6.47,.84-.3,.47-1.87-.41-1.77M725.12,125.9c1.77-1.86,1.38-5.31-.77-6.72-1.16,1.85-2.33,3.7-3.49,5.55-.89,1.41-1.69,3.5-.37,4.53,1.69,1.32,3.74-1.16,4.46-3.18M111.42,508.95c-1.01,.09-2.12,1.58-1.12,1.7,4.39,1.55,9.29,1.64,13.74,.25,1-.93-.88-2.2-2.24-2.25-3.46-.12-6.93-.02-10.38,.3M667.92,106.57c-.94-2-4.43-.5-4.56,1.71-.13,2.21,1.62,4.03,3.25,5.53,.62,.58,1.47,1.19,2.23,.84,.71-2.68,.37-5.62-.93-8.08m54.97,40.3c.75-.99-.91-2.34-2.02-1.78s-1.43,1.99-1.45,3.23c-.03,1.55,.26,3.19,1.29,4.34,1.03,1.15,2.97,1.58,4.15,.58,.98-2.05,.3-4.75-1.53-6.1M213.8,671.78c-2.22-.53-4.63-.23-6.65,.83,.57,2.27,2.76,4.02,5.09,4.07,2.34,.05,4.61-1.59,5.28-3.83-1.26-.28-2.51-.57-3.77-.85M687.31,156.17c3.67,.98,7.66,.74,11.18-.68-.13-1.7-.27-3.4-.4-5.09-1.51,2.02-3.89,3.37-6.39,3.63-1.77,.19-4.21,.37-4.39,2.14m-37.07-72.8c.49,.91,1.64,1.42,2.64,1.16,.56-1.85,1.12-3.85,.49-5.68-.64-1.83-3.04-3.13-4.57-1.95-2.01,1.53-.39,4.71,1.37,6.53m-13.47,52.33c1.4,.99,2.6-1.51,2.53-3.22-.09-2.29-.19-4.58-.28-6.87-1.87-.29-3.56,1.48-3.89,3.35-.34,1.87,.3,3.75,.92,5.54,.16,.45,.34,.93,.73,1.21m3.54,3.6c-1.94-.86-4.52,.38-5.04,2.44,2.36,1.03,4.73,2.05,7.09,3.08,1.32-.68,2.01-2.38,1.54-3.79s-2.06-2.34-3.53-2.08m14.89,7.16c-.94-.62-1.94-1.23-3.06-1.38-1.25-.16-2.57,.31-3.43,1.24,2.52,3.49,7.37,5.09,11.47,3.79-1.6-1.29-3.26-2.51-4.98-3.64m-63.99-9.16c-.7-1.7-3.6-1.37-4.35,.31-.75,1.68,.26,3.73,1.79,4.76s3.43,1.29,5.26,1.52c-.59-2.28-1.72-4.42-3.29-6.19m42.59,20.77c-.93,.55-.07,2.17,1.01,2.15,1.08-.02,1.89-.96,2.51-1.84,1.65-2.33,3.06-5.01,2.98-7.86-1.53-1.12-3.56,.74-4.12,2.55-.56,1.81-.75,4.03-2.38,4.99m-15.82-19.94c2.99,3.25,8.24,4.13,12.13,2.03-3.23-2.87-8.14-3.69-12.13-2.03m32.74-22.26c-2.36-.99-4.73-1.98-7.09-2.97,1.02,3.92,4.46,7.1,8.45,7.82,.63-1.71,.08-3.78-1.31-4.96m297.44,139.73c.05,.93,.14,1.94,.78,2.6,.55,.57,1.47,.76,2.2,.43,1.1-2.61,1.45-5.52,1-8.32-1.15-.77-2.81,.01-3.47,1.23-.66,1.21-.6,2.68-.52,4.06m-259.34-106.75c.07,1.09,1.51,1.48,2.59,1.33,2.85-.39,5.39-2.48,6.32-5.2-2.87-.57-5.99,.34-8.11,2.36-.43,.41-.84,.92-.81,1.51m-73.94-41.22c.35-2.62-1.05-5.39-3.36-6.67-1.35-.75-3.12-.97-4.38-.08,1.7,3.05,4.49,5.49,7.74,6.75m63.97,42.02c-1.21,2.29,1.43,5.53,3.86,4.62,1.8-.68,2.51-3.28,1.29-4.77-1.21-1.49-3.91-1.33-4.93,.29m-61.05-33.67c1.02,1.22,2.96,1.56,4.34,.74,1.37-.81,2.02-2.67,1.44-4.16-1.52-.46-3.19-.92-4.67-.33-1.48,.59-2.35,2.76-1.17,3.82m11.41,16.24c-1.2-.53-2.56-1.08-3.78-.59-1.22,.48-1.67,2.55-.45,3.03,2.73,.66,5.46,1.32,8.19,1.98,.29-2.11-2.01-3.55-3.95-4.42m-34.77,4.43c.52,2.44,2.66,4.45,5.13,4.81,.59-2.09,.6-4.35,0-6.45-1.72-.23-3.54,.36-4.79,1.56m-7.86,10.12c1.02,.39,2.72,.27,2.54-.81-1.81-1.99-4.01-3.61-6.44-4.75-.41,.98-.82,1.96-1.24,2.94,1.01,1.79,3.05,2.95,5.1,2.91m83.24,3.76c.63-3-2.42-6.14-5.44-5.6-.9,.16-1.78,.62-2.28,1.39,2.07,2.14,4.8,3.63,7.72,4.21m26.95-66.08c-1.65,1.12-1.44,4.06,.35,4.93,1.79,.87,4.24-.78,4.09-2.77s-2.8-3.28-4.45-2.16m-79.33,40.06c-1.14,2.37,.12,5.58,2.57,6.54,1.06-2.12,1.39-4.61,.91-6.94-1.06-.73-2.64-.57-3.53,.35m270.26,98.54c.06,1.82,2.27,3.2,3.93,2.46,.4-2.3-.01-4.73-1.15-6.78-.94-.49-2.15,.21-2.58,1.18-.43,.97-.3,2.08-.14,3.13M365.02,418.07c.98,.27,1.99-.97,1.54-1.88-1.77-.21-3.62-.41-5.27,.28s-2.92,2.58-2.28,4.24c2.14,.11,4.32-.8,5.74-2.4m-1.57,2.28c-.55,.44-1.09,.89-1.64,1.33,.71,2.9,3.83,4.99,6.78,4.52-.41-2.64-2.34-4.99-4.85-5.9m402.57,19.29c-1.09,.97-1.51,2.62-1.03,4,3.11-.41,6.13-1.54,8.74-3.28-2.44-.85-5.1-1.06-7.65-.61m-48.74-306.76c-2.21,1.98-.02,6.46,2.9,5.94,.4-1.93,.51-3.91,.32-5.87-.94-.59-2.22-.58-3.16,0m-48.72-5.85c-1.2-.73-2.64-1.05-4.03-.9-.52,2.79,1.34,5.81,4.06,6.61,.62-1.87,.67-3.92,.14-5.82M345,412.27c.66,1.16,2.67,.81,3.23-.4,.56-1.21-.07-2.71-1.1-3.55-1.03-.85-2.37-1.2-3.67-1.53-.27,1.93,.36,3.96,1.67,5.41M693.24,112.22c-2.11,2.06-.42,6.41,2.53,6.5,.36-1.99,.47-4.04,.31-6.06-.83-.45-1.84-.57-2.75-.33m-36.07,11.34c-1.52,1.61-.35,4.78,1.84,5.03,.89-1.34,1.83-2.91,1.39-4.45s-3.11-2.11-3.52-.56m-62.65,38.96c-1.21,.1-2.52,.24-3.4,1.08-.88,.84-.86,2.63,.29,3.02,1.66,.56,3.27-2.23,4.82-1.4,.42-.87,.54-1.88,.35-2.82-.56-.39-1.29-.52-1.96-.37m454.47,244.94c-1.16,4.05-1.15,8.42,.01,12.46,1.44-3.99,1.43-8.48-.01-12.46m-257.81,201.74c-2.68-1.05-5.85-.76-8.3,.75,2.39,1.27,5.24,1.66,7.88,1.08,.14-.61,.28-1.22,.42-1.83m-209.21-447.39c1.68,.77,3.61,.99,5.42,.63,.46-1.17,.61-2.46,.42-3.7-2.11-.16-4.27,.88-5.45,2.64M233.65,316.53c-.9,.25-1.35,1.48-.84,2.26,1.88,.01,3.76,.02,5.64,.04,.4-1.14-.18-2.54-1.27-3.06s-2.54-.1-3.18,.92m651.17-100.11c1.98,.06,3.96,.13,5.94,.19,.37-.63,.51-1.4,.4-2.12-2.22-.36-4.49-.46-6.73-.29-.52,.56-.28,1.62,.42,1.91m-426.74,485.11c-2.47-2.12-6.07-2.82-9.15-1.79-.61,.21-1.3,.61-1.31,1.26,3.49,.18,6.98,.35,10.47,.53M659.94,119.98c2.67,.04,5.33,.08,8,.12-1.23-2.69-5.45-3.3-7.4-1.06M370.87,424.63c.94,.08,1.87,.16,2.81,.24,.43-.85,.55-1.86,.33-2.79-1.77-.96-4.15-.65-5.61,.74,.8,.57,1.61,1.13,2.41,1.7m263.54-218.5c-.45-2.32-.42-4.72,.09-7.03-2.87,1.18-3.02,6.04-.23,7.4m-218.32,150.07c-1.64-1.68-4.64-1.75-6.35-.14,1.79,1.64,4.75,1.81,6.7,.38m242.76-214.77c-.11-.87-.22-1.74-.33-2.61-1.64-.84-3.91,0-4.63,1.69,1.48,.83,3.17,1.28,4.86,1.28m39.65,312.69c-4.52,.32-9.05,.64-13.57,.96,4.47,1.13,9.3,.79,13.57-.96m-92.64-287.78c1.31,1.3,3.37,1.76,5.11,1.15,.62-.57,.63-1.67,.02-2.24-1.62-.28-3.32-.09-4.84,.56m476.67-125.23c.32-1.09,.17-2.8-.96-2.69-.99,2.04-1.35,4.37-1.03,6.61,1.2-.91,1.95-2.38,1.97-3.88M328.13,693.47c4.47,.63,9.04,.61,13.5-.07-4.47-.63-9.04-.61-13.5,.07m189.45-165.85c.99-1.17,.68-3.21-.63-4.02-1.09,1.5-1.55,3.45-1.26,5.28,.68,.62,1.99-.25,1.69-1.12m1.58-18.63c-.55,2.01-.28,4.24,.74,6.06,1.25-1.98,1.17-4.72-.2-6.61m-30.68,142.19c.93-.92,1.09-2.51,.38-3.61-1.36,1.09-2.34,2.64-2.73,4.34,.66,.84,2.31,.29,2.33-.78m643.45-103.5c-.7,.9-.12,2.46,1,2.68,.6-1.52,.6-3.27-.02-4.79-.84-.42-1.29,1.03-1.12,1.96m-611.26,48c.94-.15,1.87-.3,2.81-.45-2.87-.74-5.92-.77-8.8-.07,1.95,.47,3.97,.6,5.96,.37m-234.99-113.86c-.91-.21-1.9,.61-1.88,1.54,.01,.93,.99,1.72,1.91,1.56,.57-.95,.56-2.22-.02-3.16m593.07-217.95c-2.61-.68-5.39-.7-8.01-.07,2.61,.68,5.39,.7,8.01,.07m-464.11,433.09c-.91,.09-1.83,.18-2.74,.27,1.16,1.28,3.14,1.74,4.74,1.11,.46-.86-1-1.4-1.97-1.27m718.69-156.34c.29-1.18-.04-3.03-1.21-2.74-.11,1.18-.22,2.37-.33,3.55,.49,.67,1.81,.07,1.63-.74m-780.08,153.5c-2.61-.68-5.39-.7-8.01-.07,2.61,.68,5.39,.7,8.01,.07M697.23,141.56c1.04,.34,1.51-1.45,.85-2.32-.72-.36-1.74-.08-2.04,.67-.29,.75,.43,1.73,1.22,1.55m312.98,361.91c-1.36-.36-2.9,.02-3.94,.96,1.35,.77,3.16,.66,4.41-.27M631.44,182.67c-.1,.67-.2,1.33-.3,2,.61,.37,1.35,.51,2.04,.39,.38-.58,.52-1.3,.38-1.98-.57-.38-1.3-.51-1.97-.36m-134.91,435.54c.17-1.19,.03-2.43-.4-3.56-.65,.68-1.35,1.46-1.36,2.41,0,.95,1.17,1.84,1.89,1.23m600-114.39c-1.99-.21-4-.09-5.95,.34,1.96,.67,4.14,.69,6.11,.06M637.57,245.22c-1.48-.07-2.33,2.24-1.15,3.15,1.13,.13,1.29-1.6,.97-2.69m233.54,207.28c2.07,.59,4.3,.57,6.36-.05-2.06-.62-4.3-.63-6.36-.04m-134.41-9.65c-.78-.51-1.32,1.23-.48,1.64,.84,.4,1.8-.18,2.55-.74,.66-.85-1.22-1.27-2.16-.73m398.7,11.16c.52,.56,1.55,.06,1.75-.67,.2-.74-.14-1.5-.47-2.19-1.17-.17-1.38,1.62-1.08,2.76M284.07,143.53c1.7,.67,3.65,.65,5.34-.04-1.68-.42-3.44-.54-5.17-.33m738.04,450.58c1.7,.67,3.65,.65,5.34-.04-1.68-.42-3.44-.54-5.17-.33m-549.94,101.93c.9-.3,1.34-1.52,.84-2.33-.71,.16-1.5,.38-1.84,1.03-.34,.64,.37,1.66,.98,1.27m480.33-86.02c1.72-.1,3.44-.2,5.16-.3-1.63-.84-3.64-.9-5.32-.17m76.54-104.79c0-.37-.71-.11-.61,.25,.1,.36,.55,.47,.92,.51,1.49,.14,3,0,4.44-.42-1.41-.46-2.92-.59-4.38-.37m-425.32,117.01c0,.37,.71,.11,.61-.25-.1-.36-.55-.47-.92-.51-1.49-.14-3,0-4.44,.42,1.41,.46,2.92,.59,4.38,.37m75.96-.06c-1.72,.1-3.44,.2-5.16,.3,1.63,.84,3.64,.9,5.32,.17m380.44-116.59c.93-.12,1.86-.25,2.8-.37-1.76-.77-3.81-.83-5.62-.17,.84,.48,1.86,.63,2.79,.4m5.86-353.14c1.05,.67,2.31-1.37,1.24-2.01-.79-.49-1.28,.98-1.08,1.89M336.07,407.8c-.28,.77,1.06,1.44,1.51,.75,.26-.72,.07-1.59-.48-2.14-.4,.4-.8,.8-1.2,1.2m320.23,211.15l2.79-.36c-1.46-.77-3.28-.81-4.78-.11,.58,.36,1.3,.48,1.96,.35m-388.5,59.41c-.67-.2-1.43-.07-1.99,.35,1.51,.62,3.27,.61,4.78-.03-.85-.43-1.84-.54-2.76-.31M633.09,189.72c.9-.54,.39-2.25-.65-2.22-.88,.62-.35,2.32,.73,2.33m-417.87,63.21c-.67,1.05,1.37,2.31,2.01,1.24,.5-.79-.97-1.29-1.89-1.08m220.13,446.62c-1.4-.71-3.15-.71-4.55,0,1.41,.4,2.9,.51,4.36,.32M248.45,203.61c1.4,.71,3.15,.71,4.55,0-1.41-.4-2.9-.51-4.36-.32m-44.3,11.76c-1.09-.08-1.52,1.38-1.56,2.48,1.19-.03,2.32-1.51,1.53-2.41m72.03-75.88c-.88-.19-2.3,.28-1.83,1.05,.55,1.1,2.62-.18,1.88-1.17m434.29,314.34c.4,.46,1.11-.45,.71-.91-.4-.46-1.13-.35-1.7-.12-.56,.23-1.16,.54-1.74,.37,.78,.56,1.82,.72,2.73,.42m-115.7,153.03c1.08,.81,2.69,.82,3.78,.03-1.19-.13-2.38-.25-3.56-.38M297.7,234.17c-.66-.18-1.38-.07-1.96,.28,.38,.55,.88,1.17,1.55,1.15s1.01-1.21,.34-1.3m716.12,362.12c-1.19,.13-2.37,.26-3.56,.39,1.09,.79,2.69,.79,3.78,0m-550.12,102.47c-1.19,.13-2.37,.26-3.56,.4,1.09,.79,2.69,.79,3.78-.01m114.37-553.6c-.59,.43-1.18,.85-1.76,1.28,.5,1.15,2.69,0,2.03-1.07l-.26-.21Z"/></g></svg>